<mxfile host="app.diagrams.net" modified="2023-10-06T09:28:25.319Z" agent="Mozilla/5.0 (Macintosh; Intel Mac OS X 10_15_7) AppleWebKit/537.36 (KHTML, like Gecko) Chrome/117.0.0.0 Safari/537.36" version="22.0.3" etag="iu9dzyiw0rbsgT70y6N3" type="github">
  <diagram name="Page-1" id="OvvoKKy10x0kGAaWaokc">
    <mxGraphModel>
      <root>
        <mxCell id="0" />
        <mxCell id="1" parent="0" />
      </root>
    </mxGraphModel>
  </diagram>
</mxfile>
